<svg version="1" xmlns="http://www.w3.org/2000/svg" width="682.667" height="682.667" viewBox="0 0 512.000000 512.000000"><path d="M230.5 1.1c-3.8.4-8.7 1-10.7 1.3-2.1.3-5.5.8-7.5 1.2-7.5 1.1-28 6.3-38.5 9.8C120.9 31.1 73.6 67.6 42.4 114.6c-8 12.1-8.4 12.9-16.3 28.9-6.3 12.8-14.3 32.8-15.5 38.6-.3 1.3-1 4-1.6 5.9-1.3 4.2-4.6 19-5.5 24.5C.9 229.1.2 239.4.5 260c.3 20.4.8 26.2 4 45 .3 1.9 2.1 9.4 4 16.7 14.4 55 47.3 104.1 93 138.5 26.2 19.8 53.6 33.4 86 42.7 7.2 2 24.5 5.7 30.6 6.5 1.9.2 5.9.8 8.9 1.2 7.1 1 47.4 1.1 56.5.1 37.9-4.1 75.3-17 108.2-37.4 24.6-15.3 46.7-35.2 66-59.5 21.9-27.5 41.1-67.6 47.9-99.8 2.1-10 4.5-24.3 5.1-30.8 1.2-11.9.9-50.7-.5-60.2-8.6-58.7-33.7-109.2-73.7-148.5-12.4-12.1-15.5-14.9-25.1-22-4.9-3.7-9.7-7.3-10.7-8.1-.9-.8-1.9-1.4-2.1-1.4-.2 0-4.4-2.5-9.2-5.6-29.7-18.6-66.9-31.5-103.8-35.8C273.7.2 242-.1 230.5 1.1zM424.2 207c1.5 5.2 2.8 10 2.8 10.5 0 .6-6.6 2.9-14.7 5.2-8.2 2.3-21.8 6.2-30.3 8.6-8.5 2.5-33 9.5-54.3 15.6-49.3 14.1-46.7 13.3-46.7 15.2 0 .9.6 1.6 1.3 1.6.6.1 4.1 1.1 7.7 2.3 3.6 1.2 10.6 3.4 15.5 5 5 1.6 23.2 7.3 40.5 12.8 17.3 5.5 35.3 11.2 40 12.7 4.7 1.4 16.8 5.3 27 8.5 10.2 3.3 31.6 10 47.5 15.1 29.6 9.3 33.9 10.9 31.8 11.6-1.1.4-8.6-1.9-47.8-14.4-6-1.9-14.4-4.6-18.5-5.8-4.1-1.3-31.1-9.8-60-19-85.1-27-84.9-27-85.4-26.4-.2.2-.6 2.7-.9 5.5l-.6 5.1 14.5 19.4c7.9 10.7 15 20.1 15.7 20.9.6.8 5 6.7 9.7 13 4.6 6.3 8.7 11.7 9 12 1.4 1.4 57 75.9 57.2 76.8.2.5-1.8 2.6-4.4 4.6l-4.6 3.5-57.6-76.7-57.5-76.8-4.3-.2c-2.4-.1-5.5-.5-6.9-.8-2.9-.6-4.1.6-8.5 8.1-1.6 2.7-3.3 5.8-3.9 6.7-.5 1-5.3 8.9-10.6 17.5-29.5 48.5-35.3 58.1-37.1 61.3-1.1 1.9-2.4 3.9-2.8 4.5-.7.9-13.3 21.6-43.8 72.2-4.8 7.9-9.1 14.3-9.7 14.3-4.1 0-3-2.7 7.7-20.4 6.1-9.9 16.8-27.6 23.8-39.1 7-11.6 18.5-30.5 25.5-42 7-11.6 16-26.4 20-33 4-6.6 11.6-19.2 17-28 5.3-8.8 10.6-17.5 11.8-19.4 1.5-2.5 1.7-3.3.6-2.9-4.9 1.8-5.7 1.9-6.3 0-.4-1-1.2-1.9-1.9-1.9-.6 0-4.6-.3-8.7-.8-4.1-.4-9.1-.8-11-1-4-.3-13.8-1.4-19-2-1.9-.3-6.2-.7-9.5-1-3.3-.3-7.3-.8-9-1-1.6-.2-7.9-.9-14-1.5-6-.6-13.2-1.4-16-1.7-4.9-.6-7.6-.8-12.4-1.1-2.2-.2-2.3-.4-1.7-5.5.4-2.8.9-7.9 1.2-11.2.2-3.3.6-6.9.9-8 .2-1.1.4-3.5.4-5.3.1-3.4.1-3.4 4.4-2.8 2.3.3 6.9.8 10.2 1.1 3.3.3 7.6.7 9.5 1 5.4.7 13.1 1.5 18 1.9 8.6.8 18.5 1.8 21 2.1 1.4.3 5.5.7 9.1 1 3.6.3 7.4.7 8.6.9 1.1.3 5.6.7 9.9 1.1 4.3.4 9 .8 10.3 1 1.7.3 3.8-.6 6.7-3l4.2-3.5 2.8 3.8c3.6 4.8 3.6 4.8 8.7 5 3.9.2 4.4 0 6.6-3.7 2.1-3.3 2.8-3.8 4.3-3 2.2 1.2 2.3 2.7.1 5.1-2.5 2.8-1.2 3 6.2.7 3.7-1.1 7.5-2.2 8.4-2.4.9-.2 18.9-5.4 40.1-11.5 21.2-6.1 50.8-14.7 65.9-19 15-4.4 27.5-8.1 27.7-8.3.3-.2 1.7-.4 3.2-.3 2.5.1 2.9.7 5.4 9.6z"/></svg>